<mxfile host="Electron" modified="2024-03-26T10:55:12.746Z" agent="Mozilla/5.0 (Windows NT 10.0; Win64; x64) AppleWebKit/537.36 (KHTML, like Gecko) draw.io/23.1.5 Chrome/120.0.6099.109 Electron/28.1.0 Safari/537.36" etag="9zqtyfE7lmGzbqdZpTjY" version="23.1.5" type="device">
  <diagram name="Page-1" id="op8y_OtBQOCJDtmfo11k">
    <mxGraphModel dx="1434" dy="1936" grid="1" gridSize="10" guides="1" tooltips="1" connect="1" arrows="1" fold="1" page="1" pageScale="1" pageWidth="850" pageHeight="1100" math="0" shadow="0">
      <root>
        <mxCell id="0" />
        <mxCell id="1" parent="0" />
        <mxCell id="cT2OnCYoaWqT6WMYAbrZ-20" style="edgeStyle=orthogonalEdgeStyle;rounded=0;orthogonalLoop=1;jettySize=auto;html=1;entryX=0.5;entryY=0;entryDx=0;entryDy=0;" edge="1" parent="1" source="cT2OnCYoaWqT6WMYAbrZ-1" target="cT2OnCYoaWqT6WMYAbrZ-18">
          <mxGeometry relative="1" as="geometry" />
        </mxCell>
        <mxCell id="cT2OnCYoaWqT6WMYAbrZ-23" style="edgeStyle=orthogonalEdgeStyle;rounded=0;orthogonalLoop=1;jettySize=auto;html=1;entryX=0.5;entryY=1;entryDx=0;entryDy=0;" edge="1" parent="1" source="cT2OnCYoaWqT6WMYAbrZ-1" target="cT2OnCYoaWqT6WMYAbrZ-22">
          <mxGeometry relative="1" as="geometry" />
        </mxCell>
        <mxCell id="cT2OnCYoaWqT6WMYAbrZ-1" value="app" style="rounded=0;whiteSpace=wrap;html=1;" vertex="1" parent="1">
          <mxGeometry x="365" width="120" height="60" as="geometry" />
        </mxCell>
        <mxCell id="cT2OnCYoaWqT6WMYAbrZ-9" style="edgeStyle=orthogonalEdgeStyle;rounded=0;orthogonalLoop=1;jettySize=auto;html=1;entryX=0.5;entryY=0;entryDx=0;entryDy=0;" edge="1" parent="1" source="cT2OnCYoaWqT6WMYAbrZ-2" target="cT2OnCYoaWqT6WMYAbrZ-7">
          <mxGeometry relative="1" as="geometry" />
        </mxCell>
        <mxCell id="cT2OnCYoaWqT6WMYAbrZ-10" style="edgeStyle=orthogonalEdgeStyle;rounded=0;orthogonalLoop=1;jettySize=auto;html=1;entryX=0.5;entryY=0;entryDx=0;entryDy=0;" edge="1" parent="1" source="cT2OnCYoaWqT6WMYAbrZ-2" target="cT2OnCYoaWqT6WMYAbrZ-6">
          <mxGeometry relative="1" as="geometry" />
        </mxCell>
        <mxCell id="cT2OnCYoaWqT6WMYAbrZ-11" style="edgeStyle=orthogonalEdgeStyle;rounded=0;orthogonalLoop=1;jettySize=auto;html=1;entryX=0.5;entryY=0;entryDx=0;entryDy=0;" edge="1" parent="1" source="cT2OnCYoaWqT6WMYAbrZ-2" target="cT2OnCYoaWqT6WMYAbrZ-8">
          <mxGeometry relative="1" as="geometry" />
        </mxCell>
        <mxCell id="cT2OnCYoaWqT6WMYAbrZ-2" value="auth" style="rounded=0;whiteSpace=wrap;html=1;" vertex="1" parent="1">
          <mxGeometry x="520" y="200" width="120" height="60" as="geometry" />
        </mxCell>
        <mxCell id="cT2OnCYoaWqT6WMYAbrZ-6" value="sign-in" style="rounded=0;whiteSpace=wrap;html=1;" vertex="1" parent="1">
          <mxGeometry x="840" y="260" width="120" height="60" as="geometry" />
        </mxCell>
        <mxCell id="cT2OnCYoaWqT6WMYAbrZ-7" value="sign-up" style="rounded=0;whiteSpace=wrap;html=1;" vertex="1" parent="1">
          <mxGeometry x="680" y="260" width="120" height="60" as="geometry" />
        </mxCell>
        <mxCell id="cT2OnCYoaWqT6WMYAbrZ-8" value="forgot-password" style="rounded=0;whiteSpace=wrap;html=1;" vertex="1" parent="1">
          <mxGeometry x="1000" y="260" width="120" height="60" as="geometry" />
        </mxCell>
        <mxCell id="cT2OnCYoaWqT6WMYAbrZ-16" style="edgeStyle=orthogonalEdgeStyle;rounded=0;orthogonalLoop=1;jettySize=auto;html=1;entryX=0.5;entryY=0;entryDx=0;entryDy=0;" edge="1" parent="1" source="cT2OnCYoaWqT6WMYAbrZ-12" target="cT2OnCYoaWqT6WMYAbrZ-14">
          <mxGeometry relative="1" as="geometry" />
        </mxCell>
        <mxCell id="cT2OnCYoaWqT6WMYAbrZ-17" style="edgeStyle=orthogonalEdgeStyle;rounded=0;orthogonalLoop=1;jettySize=auto;html=1;entryX=0.5;entryY=0;entryDx=0;entryDy=0;" edge="1" parent="1" source="cT2OnCYoaWqT6WMYAbrZ-12" target="cT2OnCYoaWqT6WMYAbrZ-15">
          <mxGeometry relative="1" as="geometry" />
        </mxCell>
        <mxCell id="cT2OnCYoaWqT6WMYAbrZ-12" value="profile" style="rounded=0;whiteSpace=wrap;html=1;" vertex="1" parent="1">
          <mxGeometry x="520" y="360" width="120" height="60" as="geometry" />
        </mxCell>
        <mxCell id="cT2OnCYoaWqT6WMYAbrZ-14" value="update" style="rounded=0;whiteSpace=wrap;html=1;" vertex="1" parent="1">
          <mxGeometry x="680" y="420" width="120" height="60" as="geometry" />
        </mxCell>
        <mxCell id="cT2OnCYoaWqT6WMYAbrZ-15" value="become-seller" style="rounded=0;whiteSpace=wrap;html=1;" vertex="1" parent="1">
          <mxGeometry x="840" y="420" width="120" height="60" as="geometry" />
        </mxCell>
        <mxCell id="cT2OnCYoaWqT6WMYAbrZ-24" style="edgeStyle=orthogonalEdgeStyle;rounded=0;orthogonalLoop=1;jettySize=auto;html=1;entryX=0;entryY=0.5;entryDx=0;entryDy=0;exitX=0.5;exitY=1;exitDx=0;exitDy=0;" edge="1" parent="1" source="cT2OnCYoaWqT6WMYAbrZ-18" target="cT2OnCYoaWqT6WMYAbrZ-12">
          <mxGeometry relative="1" as="geometry" />
        </mxCell>
        <mxCell id="cT2OnCYoaWqT6WMYAbrZ-27" style="edgeStyle=orthogonalEdgeStyle;rounded=0;orthogonalLoop=1;jettySize=auto;html=1;entryX=1;entryY=0.5;entryDx=0;entryDy=0;exitX=0.5;exitY=1;exitDx=0;exitDy=0;" edge="1" parent="1" source="cT2OnCYoaWqT6WMYAbrZ-18" target="cT2OnCYoaWqT6WMYAbrZ-25">
          <mxGeometry relative="1" as="geometry" />
        </mxCell>
        <mxCell id="cT2OnCYoaWqT6WMYAbrZ-28" style="edgeStyle=orthogonalEdgeStyle;rounded=0;orthogonalLoop=1;jettySize=auto;html=1;entryX=0;entryY=0.5;entryDx=0;entryDy=0;exitX=0.5;exitY=1;exitDx=0;exitDy=0;" edge="1" parent="1" source="cT2OnCYoaWqT6WMYAbrZ-18" target="cT2OnCYoaWqT6WMYAbrZ-2">
          <mxGeometry relative="1" as="geometry" />
        </mxCell>
        <mxCell id="cT2OnCYoaWqT6WMYAbrZ-30" style="edgeStyle=orthogonalEdgeStyle;rounded=0;orthogonalLoop=1;jettySize=auto;html=1;entryX=0;entryY=0.5;entryDx=0;entryDy=0;exitX=0.5;exitY=1;exitDx=0;exitDy=0;" edge="1" parent="1" source="cT2OnCYoaWqT6WMYAbrZ-18" target="cT2OnCYoaWqT6WMYAbrZ-29">
          <mxGeometry relative="1" as="geometry" />
        </mxCell>
        <mxCell id="cT2OnCYoaWqT6WMYAbrZ-18" value="[locale]" style="rounded=0;whiteSpace=wrap;html=1;" vertex="1" parent="1">
          <mxGeometry x="365" y="100" width="120" height="60" as="geometry" />
        </mxCell>
        <mxCell id="cT2OnCYoaWqT6WMYAbrZ-22" value="offline" style="rounded=0;whiteSpace=wrap;html=1;" vertex="1" parent="1">
          <mxGeometry x="365" y="-100" width="120" height="60" as="geometry" />
        </mxCell>
        <mxCell id="cT2OnCYoaWqT6WMYAbrZ-47" style="edgeStyle=orthogonalEdgeStyle;rounded=0;orthogonalLoop=1;jettySize=auto;html=1;entryX=0.5;entryY=0;entryDx=0;entryDy=0;" edge="1" parent="1" source="cT2OnCYoaWqT6WMYAbrZ-25" target="cT2OnCYoaWqT6WMYAbrZ-46">
          <mxGeometry relative="1" as="geometry" />
        </mxCell>
        <mxCell id="cT2OnCYoaWqT6WMYAbrZ-49" style="edgeStyle=orthogonalEdgeStyle;rounded=0;orthogonalLoop=1;jettySize=auto;html=1;" edge="1" parent="1" source="cT2OnCYoaWqT6WMYAbrZ-25" target="cT2OnCYoaWqT6WMYAbrZ-48">
          <mxGeometry relative="1" as="geometry" />
        </mxCell>
        <mxCell id="cT2OnCYoaWqT6WMYAbrZ-25" value="dashboard" style="rounded=0;whiteSpace=wrap;html=1;" vertex="1" parent="1">
          <mxGeometry x="200" y="200" width="120" height="60" as="geometry" />
        </mxCell>
        <mxCell id="cT2OnCYoaWqT6WMYAbrZ-33" style="edgeStyle=orthogonalEdgeStyle;rounded=0;orthogonalLoop=1;jettySize=auto;html=1;entryX=0.5;entryY=0;entryDx=0;entryDy=0;" edge="1" parent="1" source="cT2OnCYoaWqT6WMYAbrZ-29" target="cT2OnCYoaWqT6WMYAbrZ-31">
          <mxGeometry relative="1" as="geometry" />
        </mxCell>
        <mxCell id="cT2OnCYoaWqT6WMYAbrZ-36" style="edgeStyle=orthogonalEdgeStyle;rounded=0;orthogonalLoop=1;jettySize=auto;html=1;entryX=0.5;entryY=0;entryDx=0;entryDy=0;" edge="1" parent="1" source="cT2OnCYoaWqT6WMYAbrZ-29" target="cT2OnCYoaWqT6WMYAbrZ-34">
          <mxGeometry relative="1" as="geometry" />
        </mxCell>
        <mxCell id="cT2OnCYoaWqT6WMYAbrZ-37" style="edgeStyle=orthogonalEdgeStyle;rounded=0;orthogonalLoop=1;jettySize=auto;html=1;entryX=0.5;entryY=0;entryDx=0;entryDy=0;" edge="1" parent="1" source="cT2OnCYoaWqT6WMYAbrZ-29" target="cT2OnCYoaWqT6WMYAbrZ-35">
          <mxGeometry relative="1" as="geometry" />
        </mxCell>
        <mxCell id="cT2OnCYoaWqT6WMYAbrZ-29" value="stores" style="rounded=0;whiteSpace=wrap;html=1;" vertex="1" parent="1">
          <mxGeometry x="520" y="520" width="120" height="60" as="geometry" />
        </mxCell>
        <mxCell id="cT2OnCYoaWqT6WMYAbrZ-40" style="edgeStyle=orthogonalEdgeStyle;rounded=0;orthogonalLoop=1;jettySize=auto;html=1;entryX=0.5;entryY=0;entryDx=0;entryDy=0;" edge="1" parent="1" source="cT2OnCYoaWqT6WMYAbrZ-31" target="cT2OnCYoaWqT6WMYAbrZ-38">
          <mxGeometry relative="1" as="geometry" />
        </mxCell>
        <mxCell id="cT2OnCYoaWqT6WMYAbrZ-31" value="[storeId]" style="rounded=0;whiteSpace=wrap;html=1;" vertex="1" parent="1">
          <mxGeometry x="680" y="580" width="120" height="60" as="geometry" />
        </mxCell>
        <mxCell id="cT2OnCYoaWqT6WMYAbrZ-44" style="edgeStyle=orthogonalEdgeStyle;rounded=0;orthogonalLoop=1;jettySize=auto;html=1;entryX=1;entryY=0.5;entryDx=0;entryDy=0;exitX=0.5;exitY=1;exitDx=0;exitDy=0;" edge="1" parent="1" source="cT2OnCYoaWqT6WMYAbrZ-34" target="cT2OnCYoaWqT6WMYAbrZ-38">
          <mxGeometry relative="1" as="geometry" />
        </mxCell>
        <mxCell id="cT2OnCYoaWqT6WMYAbrZ-34" value="categories" style="rounded=0;whiteSpace=wrap;html=1;" vertex="1" parent="1">
          <mxGeometry x="840" y="580" width="120" height="60" as="geometry" />
        </mxCell>
        <mxCell id="cT2OnCYoaWqT6WMYAbrZ-45" style="edgeStyle=orthogonalEdgeStyle;rounded=0;orthogonalLoop=1;jettySize=auto;html=1;entryX=1;entryY=0.5;entryDx=0;entryDy=0;exitX=0.5;exitY=1;exitDx=0;exitDy=0;" edge="1" parent="1" source="cT2OnCYoaWqT6WMYAbrZ-35" target="cT2OnCYoaWqT6WMYAbrZ-39">
          <mxGeometry relative="1" as="geometry" />
        </mxCell>
        <mxCell id="cT2OnCYoaWqT6WMYAbrZ-35" value="products" style="rounded=0;whiteSpace=wrap;html=1;" vertex="1" parent="1">
          <mxGeometry x="1000" y="580" width="120" height="60" as="geometry" />
        </mxCell>
        <mxCell id="cT2OnCYoaWqT6WMYAbrZ-41" style="edgeStyle=orthogonalEdgeStyle;rounded=0;orthogonalLoop=1;jettySize=auto;html=1;entryX=0.5;entryY=0;entryDx=0;entryDy=0;" edge="1" parent="1" source="cT2OnCYoaWqT6WMYAbrZ-38" target="cT2OnCYoaWqT6WMYAbrZ-39">
          <mxGeometry relative="1" as="geometry" />
        </mxCell>
        <mxCell id="cT2OnCYoaWqT6WMYAbrZ-38" value="[categoryId]" style="rounded=0;whiteSpace=wrap;html=1;" vertex="1" parent="1">
          <mxGeometry x="680" y="680" width="120" height="60" as="geometry" />
        </mxCell>
        <mxCell id="cT2OnCYoaWqT6WMYAbrZ-39" value="[productId]" style="rounded=0;whiteSpace=wrap;html=1;" vertex="1" parent="1">
          <mxGeometry x="680" y="780" width="120" height="60" as="geometry" />
        </mxCell>
        <mxCell id="cT2OnCYoaWqT6WMYAbrZ-46" value="store" style="rounded=0;whiteSpace=wrap;html=1;" vertex="1" parent="1">
          <mxGeometry x="40" y="300" width="120" height="60" as="geometry" />
        </mxCell>
        <mxCell id="cT2OnCYoaWqT6WMYAbrZ-48" value="admin" style="rounded=0;whiteSpace=wrap;html=1;" vertex="1" parent="1">
          <mxGeometry x="40" y="100" width="120" height="60" as="geometry" />
        </mxCell>
      </root>
    </mxGraphModel>
  </diagram>
</mxfile>
